# xmcd
#
# Track frame offsets:
#	150
#	14256
#	32498
#	60430
#	72729
#	91417
#	104981
#	118674
#	129682
#	140975
#
# Disc length: 2171
#
# Revision: 1
# Processed by: cddbd v1.5.1PL0 Copyright (c) Steve Scherf et al.
# Submitted via: CDex 1.51
# Normalized: r0:TDELIM( - ),TSWAP
#
DISCID=9908790a
DTITLE=Best of Blues - CD 3
DYEAR=2004
DGENRE=Blues
TTITLE0=Pee Wee Crayton - Blues IN The Ghetto
TTITLE1=James Cotton Band - Fanny Mae
TTITLE2=Johnny Otis - Barrelhouse Blues
TTITLE3=Big Maybelle - Don't Let Him See You Cry
TTITLE4=Mississippi Fred McDowell - Unknown Blues
TTITLE5=Memphis Slim - Blue and Disgusted
TTITLE6=Leadbelly - The Bourgeois Blues
TTITLE7=B.B. King - Catfish Blues
TTITLE8=Lightnin' Hopkins - Just Sitting Down Thinkin'
TTITLE9=B.B. King - Every Day I Have The Blues
EXTD=YEAR: 2004
EXTT0=
EXTT1=
EXTT2=
EXTT3=
EXTT4=
EXTT5=
EXTT6=
EXTT7=
EXTT8=
EXTT9=
PLAYORDER=
